<?xml version="1.0" encoding="utf-8"?>
<!-- Generator: Adobe Illustrator 21.0.2, SVG Export Plug-In . SVG Version: 6.00 Build 0)  -->
<svg version="1.1" id="Capa_1" xmlns="http://www.w3.org/2000/svg" xmlns:xlink="http://www.w3.org/1999/xlink" x="0px" y="0px"
	 viewBox="0 0 483.3 483.3" style="enable-background:new 0 0 483.3 483.3;" xml:space="preserve">
<style type="text/css">
	.st0{fill:#FFFFFF;}
</style>
<g>
	<g>
		<path class="st0" d="M424.3,0H59.1C26.5,0,0,34.8,0,77.7v328c0,42.8,26.5,77.7,59.1,77.7h365.1c32.6,0,59.1-34.8,59.1-77.7V77.8
			C483.4,35,456.9,0,424.3,0z M456.4,405.6c0,23.3-14.4,42.2-32.1,42.2H59.1c-17.7,0-32.1-18.9-32.1-42.2V77.8
			c0-23.3,14.4-42.2,32.1-42.2h365.1c17.7,0,32.1,18.9,32.1,42.2L456.4,405.6L456.4,405.6z"/>
		<path class="st0" d="M304.8,237.6L423,98.3c5.5-6.6,6-17.7,1-25.1c-5-7.2-13.5-7.9-19.1-1.3l-163,192.2l-31.8-37.3
			c-0.1-0.1-0.2-0.3-0.2-0.4c-0.7-0.9-1.4-1.7-2.2-2.5L78.3,71.7c-5.6-6.6-14.1-5.9-19.1,1.4c-5,7.4-4.5,18.5,1.1,25.1l119.6,140.5
			L60.8,385.3c-5.4,6.7-5.7,17.9-0.6,25.1c2.7,3.7,6.3,5.7,9.9,5.7c3.3,0,6.6-1.6,9.2-4.7l120.9-148.6l32.8,38.5
			c2.6,3,5.8,4.5,9,4.5s6.5-1.6,9-4.6l33.7-39.7l120.2,150.1c2.6,3.3,6,4.9,9.3,4.9c3.6,0,7.1-1.8,9.8-5.5
			c5.1-7.1,4.9-18.4-0.5-25.1L304.8,237.6z"/>
	</g>
</g>
</svg>
